<svg width="37" height="37" viewBox="0 0 37 37" fill="none" xmlns="http://www.w3.org/2000/svg">
<path d="M29.2918 12.3333L33.9168 12.3333L33.9168 24.6666L3.0835 24.6666L3.0835 12.3333L18.5002 12.3333M4.62516 29.2916L4.62516 24.6666L9.25016 24.6666L9.25016 29.2916L4.62516 29.2916ZM32.3752 29.2916L32.3752 24.6666L27.7502 24.6666L27.7502 29.2916L32.3752 29.2916ZM7.7085 18.4999L13.8752 18.4999L7.7085 18.4999Z" fill="#FBB040"/>
<path d="M29.2918 12.3333L33.9168 12.3333L33.9168 24.6666L3.0835 24.6666L3.0835 12.3333L18.5002 12.3333M7.7085 18.4999L13.8752 18.4999M4.62516 29.2916L4.62516 24.6666L9.25016 24.6666L9.25016 29.2916L4.62516 29.2916ZM32.3752 29.2916L32.3752 24.6666L27.7502 24.6666L27.7502 29.2916L32.3752 29.2916Z" stroke="white" stroke-linecap="round" stroke-linejoin="round"/>
<path d="M23.8958 17.7292C26.8759 17.7292 29.2917 15.3134 29.2917 12.3333C29.2917 9.3533 26.8759 6.9375 23.8958 6.9375C20.9158 6.9375 18.5 9.3533 18.5 12.3333C18.5 15.3134 20.9158 17.7292 23.8958 17.7292Z" fill="#FBB040" stroke="white" stroke-linecap="round" stroke-linejoin="round"/>
<path d="M23.896 14.6458C25.1732 14.6458 26.2085 13.6104 26.2085 12.3333C26.2085 11.0561 25.1732 10.0208 23.896 10.0208C22.6188 10.0208 21.5835 11.0561 21.5835 12.3333C21.5835 13.6104 22.6188 14.6458 23.896 14.6458Z" fill="#FBB040"/>
</svg>
