<svg width="31" height="25" viewBox="0 0 31 25" fill="none" xmlns="http://www.w3.org/2000/svg">
<path d="M5.16683 3.125C4.48169 3.125 3.82461 3.34449 3.34014 3.73519C2.85567 4.12589 2.5835 4.6558 2.5835 5.20833V19.7917C2.5835 20.3442 2.85567 20.8741 3.34014 21.2648C3.82461 21.6555 4.48169 21.875 5.16683 21.875H15.5002C16.1853 21.875 16.8424 21.6555 17.3269 21.2648C17.8113 20.8741 18.0835 20.3442 18.0835 19.7917V5.20833C18.0835 4.6558 17.8113 4.12589 17.3269 3.73519C16.8424 3.34449 16.1853 3.125 15.5002 3.125H5.16683ZM10.3335 5.20833C11.0186 5.20833 11.6757 5.42783 12.1602 5.81853C12.6447 6.20923 12.9168 6.73913 12.9168 7.29167C12.9168 7.8442 12.6447 8.3741 12.1602 8.76481C11.6757 9.15551 11.0186 9.375 10.3335 9.375C9.64835 9.375 8.99127 9.15551 8.5068 8.76481C8.02233 8.3741 7.75016 7.8442 7.75016 7.29167C7.75016 6.73913 8.02233 6.20923 8.5068 5.81853C8.99127 5.42783 9.64835 5.20833 10.3335 5.20833ZM24.5418 7.29167V11.2396L21.5839 8.85417L20.6668 9.59375L24.2706 12.5L20.6668 15.4062L21.5839 16.1458L24.5418 13.7604V17.7083H25.1877L28.8689 14.7292L26.1047 12.5L28.8689 10.2604L25.1877 7.29167H24.5418ZM25.8335 9.28125L27.0477 10.2604L25.8335 11.2396V9.28125ZM10.3335 11.4583C11.7038 11.4583 13.0179 11.8973 13.9869 12.6787C14.9558 13.4601 15.5002 14.5199 15.5002 15.625C15.5002 16.7301 14.9558 17.7899 13.9869 18.5713C13.0179 19.3527 11.7038 19.7917 10.3335 19.7917C8.96321 19.7917 7.64905 19.3527 6.68011 18.5713C5.71117 17.7899 5.16683 16.7301 5.16683 15.625C5.16683 14.5199 5.71117 13.4601 6.68011 12.6787C7.64905 11.8973 8.96321 11.4583 10.3335 11.4583ZM10.3335 13.5417C9.64835 13.5417 8.99127 13.7612 8.5068 14.1519C8.02233 14.5426 7.75016 15.0725 7.75016 15.625C7.75016 16.1775 8.02233 16.7074 8.5068 17.0981C8.99127 17.4888 9.64835 17.7083 10.3335 17.7083C11.0186 17.7083 11.6757 17.4888 12.1602 17.0981C12.6447 16.7074 12.9168 16.1775 12.9168 15.625C12.9168 15.0725 12.6447 14.5426 12.1602 14.1519C11.6757 13.7612 11.0186 13.5417 10.3335 13.5417ZM25.8335 13.7604L27.0477 14.7292L25.8335 15.7083V13.7604Z" fill="#FBB040"/>
</svg>
