<svg width="31" height="26" viewBox="0 0 31 26" fill="none" xmlns="http://www.w3.org/2000/svg">
<path d="M5.16667 2.16675C4.8241 2.16675 4.49555 2.28088 4.25332 2.48405C4.01109 2.68721 3.875 2.96276 3.875 3.25008V4.33341C3.875 4.62073 4.01109 4.89628 4.25332 5.09945C4.49555 5.30261 4.8241 5.41675 5.16667 5.41675H6.45833V15.1667H14.2083V17.9726L8.77042 22.5226L10.6046 24.0609L14.2083 21.0276V23.8334H16.7917V21.0276L20.3954 24.0609L22.2296 22.5226L16.7917 17.9726V15.1667H24.5417V5.41675H25.8333C26.1759 5.41675 26.5044 5.30261 26.7467 5.09945C26.9889 4.89628 27.125 4.62073 27.125 4.33341V3.25008C27.125 2.96276 26.9889 2.68721 26.7467 2.48405C26.5044 2.28088 26.1759 2.16675 25.8333 2.16675H5.16667Z" fill="#FBB040"/>
</svg>
